<svg width="29" height="25" viewBox="0 0 29 25" fill="none" xmlns="http://www.w3.org/2000/svg">
<path d="M22.1 5.40703C22.1 4.85475 22.5477 4.40703 23.1 4.40703H26.1C27.2046 4.40703 28.1 5.30246 28.1 6.40703V18.007C28.1 19.1116 27.2046 20.007 26.1 20.007H23.1C22.5477 20.007 22.1 19.5593 22.1 19.007V5.40703Z" fill="black" fill-opacity="0.51"/>
<path d="M0.5 6.40703C0.5 5.30246 1.39543 4.40703 2.5 4.40703H5.5C6.05228 4.40703 6.5 4.85475 6.5 5.40703V19.007C6.5 19.5593 6.05228 20.007 5.5 20.007H2.5C1.39543 20.007 0.5 19.1116 0.5 18.007L0.5 6.40703Z" fill="black" fill-opacity="0.51"/>
<path d="M20.3 22.3711C20.3 23.4757 19.4046 24.3711 18.3 24.3711H10.3C9.19543 24.3711 8.3 23.4757 8.3 22.3711V2.37109C8.3 1.26652 9.19543 0.371094 10.3 0.371094H18.3C19.4046 0.371094 20.3 1.26653 20.3 2.37109V22.3711Z" fill="black"/>
</svg>
